<mxfile host="app.diagrams.net" agent="Mozilla/5.0 (Windows NT 10.0; Win64; x64) AppleWebKit/537.36 (KHTML, like Gecko) Chrome/134.0.0.0 Safari/537.36" version="26.1.2">
  <diagram name="Page-1" id="2NHOtzXS3ejpUwLiltRz">
    <mxGraphModel dx="703" dy="441" grid="1" gridSize="10" guides="1" tooltips="1" connect="1" arrows="1" fold="1" page="1" pageScale="1" pageWidth="850" pageHeight="1100" math="0" shadow="0">
      <root>
        <mxCell id="0" />
        <mxCell id="1" parent="0" />
        <mxCell id="Kt8CmNoVJtwf5YiFKJb5-1" value="Admin" style="rounded=0;whiteSpace=wrap;html=1;fontSize=16;" parent="1" vertex="1">
          <mxGeometry x="40" y="130" width="120" height="60" as="geometry" />
        </mxCell>
        <mxCell id="Kt8CmNoVJtwf5YiFKJb5-2" value="Users" style="rounded=0;whiteSpace=wrap;html=1;fontSize=16;" parent="1" vertex="1">
          <mxGeometry x="640" y="130" width="120" height="60" as="geometry" />
        </mxCell>
        <mxCell id="Kt8CmNoVJtwf5YiFKJb5-40" value="Step-u&lt;span style=&quot;background-color: transparent; color: light-dark(rgb(0, 0, 0), rgb(255, 255, 255));&quot;&gt;pWholesale&lt;/span&gt;" style="ellipse;whiteSpace=wrap;html=1;fontSize=16;" parent="1" vertex="1">
          <mxGeometry x="270" y="110" width="250" height="100" as="geometry" />
        </mxCell>
        <mxCell id="Kt8CmNoVJtwf5YiFKJb5-45" value="" style="endArrow=classic;html=1;rounded=0;exitX=1.024;exitY=0.145;exitDx=0;exitDy=0;exitPerimeter=0;entryX=0.057;entryY=0.284;entryDx=0;entryDy=0;entryPerimeter=0;" parent="1" edge="1" target="Kt8CmNoVJtwf5YiFKJb5-40">
          <mxGeometry width="50" height="50" relative="1" as="geometry">
            <mxPoint x="160.8800000000001" y="138.70000000000005" as="sourcePoint" />
            <mxPoint x="290" y="138" as="targetPoint" />
          </mxGeometry>
        </mxCell>
        <mxCell id="Kt8CmNoVJtwf5YiFKJb5-46" value="" style="endArrow=classic;html=1;rounded=0;exitX=0.966;exitY=0.704;exitDx=0;exitDy=0;exitPerimeter=0;" parent="1" source="Kt8CmNoVJtwf5YiFKJb5-40" edge="1">
          <mxGeometry width="50" height="50" relative="1" as="geometry">
            <mxPoint x="523" y="180" as="sourcePoint" />
            <mxPoint x="640" y="180" as="targetPoint" />
          </mxGeometry>
        </mxCell>
        <mxCell id="Kt8CmNoVJtwf5YiFKJb5-47" value="" style="endArrow=classic;html=1;rounded=0;exitX=0.051;exitY=0.687;exitDx=0;exitDy=0;exitPerimeter=0;" parent="1" source="Kt8CmNoVJtwf5YiFKJb5-40" edge="1">
          <mxGeometry width="50" height="50" relative="1" as="geometry">
            <mxPoint x="400" y="420" as="sourcePoint" />
            <mxPoint x="160" y="179" as="targetPoint" />
          </mxGeometry>
        </mxCell>
        <mxCell id="Kt8CmNoVJtwf5YiFKJb5-48" value="" style="endArrow=classic;html=1;rounded=0;exitX=0.051;exitY=0.687;exitDx=0;exitDy=0;exitPerimeter=0;entryX=0.961;entryY=0.287;entryDx=0;entryDy=0;entryPerimeter=0;" parent="1" target="Kt8CmNoVJtwf5YiFKJb5-40" edge="1">
          <mxGeometry width="50" height="50" relative="1" as="geometry">
            <mxPoint x="640" y="140" as="sourcePoint" />
            <mxPoint x="517" y="140" as="targetPoint" />
          </mxGeometry>
        </mxCell>
        <mxCell id="Kt8CmNoVJtwf5YiFKJb5-49" value="Manage Users, Inventry, Orders" style="text;strokeColor=none;align=center;fillColor=none;html=1;verticalAlign=middle;whiteSpace=wrap;rounded=0;" parent="1" vertex="1">
          <mxGeometry x="110" y="100" width="180" height="30" as="geometry" />
        </mxCell>
        <mxCell id="Kt8CmNoVJtwf5YiFKJb5-50" value="Login, Browse Footwear, Place order" style="text;strokeColor=none;align=center;fillColor=none;html=1;verticalAlign=middle;whiteSpace=wrap;rounded=0;" parent="1" vertex="1">
          <mxGeometry x="490" y="100" width="210" height="30" as="geometry" />
        </mxCell>
        <mxCell id="Kt8CmNoVJtwf5YiFKJb5-51" value="Reports, Analysis" style="text;strokeColor=none;align=center;fillColor=none;html=1;verticalAlign=middle;whiteSpace=wrap;rounded=0;" parent="1" vertex="1">
          <mxGeometry x="130" y="180" width="180" height="30" as="geometry" />
        </mxCell>
        <mxCell id="Kt8CmNoVJtwf5YiFKJb5-52" value="Order Status, Invoice, History" style="text;strokeColor=none;align=center;fillColor=none;html=1;verticalAlign=middle;whiteSpace=wrap;rounded=0;" parent="1" vertex="1">
          <mxGeometry x="480" y="190" width="180" height="30" as="geometry" />
        </mxCell>
      </root>
    </mxGraphModel>
  </diagram>
</mxfile>
